<svg width="39" height="38" viewBox="0 0 39 38" fill="none" xmlns="http://www.w3.org/2000/svg">
<g clip-path="url(#clip0_702_713)">
<path fill-rule="evenodd" clip-rule="evenodd" d="M38.25 19C38.25 29.4928 29.7428 38 19.25 38C8.75725 38 0.25 29.4928 0.25 19C0.25 8.50725 8.75725 0 19.25 0C29.7428 0 38.25 8.50725 38.25 19ZM19.9308 14.0268C18.0831 14.7947 14.3892 16.3859 8.85067 18.7989C7.95133 19.1568 7.4795 19.5067 7.43675 19.8487C7.36392 20.4282 8.08908 20.6562 9.07392 20.9649C9.2085 21.0077 9.34783 21.0504 9.49033 21.0979C10.4609 21.413 11.7656 21.7819 12.4433 21.7962C13.0592 21.8088 13.7463 21.5555 14.5048 21.0362C19.6791 17.5418 22.3502 15.7763 22.518 15.7383C22.6368 15.7114 22.8014 15.6766 22.9123 15.7763C23.0231 15.8745 23.012 16.0613 23.0009 16.112C22.9281 16.4176 20.0876 19.0602 18.6151 20.4282C18.1559 20.8541 17.8313 21.1565 17.7648 21.2262C17.616 21.3798 17.464 21.527 17.3183 21.6679C16.4158 22.5356 15.7413 23.1879 17.3563 24.2519C18.1322 24.7633 18.7528 25.1861 19.3719 25.6073C20.048 26.068 20.7225 26.5272 21.5965 27.1003C21.8182 27.246 22.0303 27.3964 22.2378 27.5437C23.0247 28.1058 23.7324 28.6092 24.6064 28.5301C25.1131 28.4826 25.6387 28.006 25.9047 26.5826C26.5333 23.2164 27.7715 15.9268 28.0581 12.9216C28.0755 12.6721 28.0649 12.4214 28.0264 12.1743C28.0034 11.9746 27.9062 11.791 27.7541 11.6597C27.5277 11.4744 27.1762 11.4348 27.0178 11.438C26.3038 11.4507 25.2081 11.8323 19.9308 14.0268V14.0268Z" fill="white"/>
</g>
<defs>
<clipPath id="clip0_702_713">
<rect width="38" height="38" fill="white" transform="translate(0.25)"/>
</clipPath>
</defs>
</svg>
