<svg width="39" height="38" viewBox="0 0 39 38" fill="none" xmlns="http://www.w3.org/2000/svg">
<g clip-path="url(#clip0_702_709)">
<path fill-rule="evenodd" clip-rule="evenodd" d="M27.8237 22.7716C27.3519 22.5356 25.0387 21.3988 24.608 21.2405C24.1773 21.0837 23.8638 21.0061 23.5487 21.478C23.2352 21.9466 22.3343 23.0075 22.0604 23.321C21.7849 23.6361 21.511 23.6741 21.0407 23.4397C20.5705 23.2022 19.0537 22.7066 17.2566 21.1043C15.8585 19.8566 14.9132 18.3161 14.6393 17.8442C14.3654 17.374 14.6092 17.1191 14.8452 16.8847C15.0573 16.6741 15.3154 16.3353 15.5513 16.0614C15.7872 15.7859 15.8648 15.5896 16.0216 15.2745C16.1799 14.961 16.1007 14.6871 15.982 14.4511C15.8648 14.2152 14.9243 11.8988 14.5317 10.9567C14.1501 10.04 13.7622 10.1651 13.474 10.1492C13.1985 10.1366 12.885 10.1334 12.5715 10.1334C12.258 10.1334 11.7482 10.2506 11.3175 10.7224C10.8852 11.1926 9.67083 12.3311 9.67083 14.6475C9.67083 16.9623 11.3555 19.1996 11.5914 19.5146C11.8273 19.8281 14.9085 24.5813 19.6284 26.6191C20.7526 27.1036 21.6282 27.3933 22.3106 27.6086C23.4379 27.9681 24.4639 27.9174 25.2746 27.7955C26.1771 27.6609 28.0581 26.6571 28.4507 25.5582C28.8418 24.4594 28.8418 23.5173 28.7247 23.321C28.6075 23.1246 28.294 23.0075 27.8222 22.7716H27.8237ZM32.5579 5.52273C30.8134 3.76669 28.7377 2.37433 26.4511 1.42633C24.1646 0.478333 21.7126 -0.00645406 19.2373 6.48811e-05C8.86016 6.48811e-05 0.4115 8.44715 0.408333 18.8291C0.403525 22.1331 1.27026 25.3799 2.92108 28.242L0.25 38.0001L10.2313 35.3812C12.9925 36.8856 16.0866 37.6738 19.231 37.6739H19.2389C29.6161 37.6739 38.0647 29.2268 38.0679 18.8433C38.0756 16.369 37.5925 13.9177 36.6467 11.6313C35.701 9.34484 34.3112 7.26863 32.5579 5.52273Z" fill="white"/>
</g>
<defs>
<clipPath id="clip0_702_709">
<rect width="38" height="38" fill="white" transform="translate(0.25)"/>
</clipPath>
</defs>
</svg>
