<svg width="28" height="28" viewBox="0 0 28 28" fill="none" xmlns="http://www.w3.org/2000/svg">
<path d="M24.2156 6.29453L21.3035 3.38516C21.0981 3.17883 20.8539 3.01512 20.585 2.90344C20.3162 2.79176 20.0279 2.73431 19.7367 2.73438C19.1434 2.73438 18.5855 2.9668 18.1672 3.38516L15.0336 6.51875C14.8273 6.72417 14.6636 6.96834 14.5519 7.23722C14.4402 7.5061 14.3827 7.7944 14.3828 8.08555C14.3828 8.67891 14.6152 9.23672 15.0336 9.65508L17.325 11.9465C16.7886 13.1287 16.0429 14.2042 15.1238 15.1211C14.2071 16.0424 13.1316 16.7908 11.9492 17.3305L9.65781 15.0391C9.45239 14.8327 9.20823 14.669 8.93935 14.5573C8.67047 14.4457 8.38217 14.3882 8.09102 14.3883C7.49766 14.3883 6.93985 14.6207 6.52149 15.0391L3.38516 18.1699C3.17858 18.3757 3.01473 18.6203 2.90304 18.8897C2.79136 19.1591 2.73404 19.4479 2.73438 19.7395C2.73438 20.3328 2.9668 20.8906 3.38516 21.309L6.2918 24.2156C6.95899 24.8855 7.88047 25.2656 8.82656 25.2656C9.02617 25.2656 9.21758 25.2492 9.40625 25.2164C13.0922 24.6094 16.748 22.6488 19.6984 19.7012C22.6461 16.7563 24.6039 13.1031 25.2191 9.40625C25.4051 8.27695 25.0305 7.11484 24.2156 6.29453Z" fill="white"/>
</svg>
