<svg width="200" height="43" viewBox="0 0 200 43" fill="none" xmlns="http://www.w3.org/2000/svg">
<path d="M47.7459 9.20154V15.6627L36.3012 24.4561C35.5241 24.9739 34.4909 25.0833 33.5967 24.7425L32.8947 24.475L23.8581 30.9629L33.4386 34.7213C34.4147 35.1041 35.5552 34.9447 36.3487 34.3145L48 25.0607L47.9946 29.8362L36.2786 39.4403C35.5227 40.0577 34.4339 40.2427 33.4715 39.9171L23.8581 36.0033L17.8244 40.8022C16.9661 41.4848 15.7099 41.6109 14.6992 41.116L0 33.9176L0.0108126 23.9179L14.7942 31.2159C15.7577 31.6916 16.9528 31.6031 17.8127 30.9924L31.9297 20.9655L27.5749 18.8323L23.4183 21.8101C22.5607 22.4245 21.3648 22.5171 20.3987 22.0438L10.5477 17.218L5.12519 21.1036L5.14411 3.76358L20.2555 11.1656C21.2215 11.6388 22.4174 11.5462 23.2749 10.9319L36.5575 1.41602L36.5494 8.68489L27.875 14.8966L33.4547 17.5485C34.4167 18.0057 35.5965 17.9076 36.4444 17.3001L47.7459 9.20154Z" fill="url(#paint0_linear_701_4)"/>
<path d="M71.3147 15.6766C70.1166 15.6766 69.0051 15.4818 67.9802 15.092C66.9697 14.7023 66.0891 14.1537 65.3385 13.4464C64.6023 12.7391 64.0249 11.9091 63.6063 10.9563C63.2021 10.0036 63 8.96427 63 7.83832C63 6.71238 63.2021 5.67304 63.6063 4.72032C64.0249 3.76759 64.6095 2.93757 65.3602 2.23024C66.1108 1.52292 66.9913 0.974376 68.0018 0.584625C69.0123 0.194875 70.1093 0 71.293 0C72.4912 0 73.5882 0.194875 74.5843 0.584625C75.5947 0.974376 76.4681 1.52292 77.2043 2.23024C77.9549 2.93757 78.5395 3.76759 78.9581 4.72032C79.3768 5.65861 79.5861 6.69794 79.5861 7.83832C79.5861 8.96427 79.3768 10.0108 78.9581 10.978C78.5395 11.9307 77.9549 12.7607 77.2043 13.4681C76.4681 14.161 75.5947 14.7023 74.5843 15.092C73.5882 15.4818 72.4984 15.6766 71.3147 15.6766ZM71.293 12.6886C71.9715 12.6886 72.5922 12.5731 73.1552 12.3421C73.7326 12.1111 74.2378 11.7791 74.6709 11.3461C75.1039 10.913 75.4359 10.4006 75.6669 9.80873C75.9123 9.21689 76.035 8.56009 76.035 7.83832C76.035 7.11656 75.9123 6.45976 75.6669 5.86792C75.4359 5.27607 75.1039 4.76362 74.6709 4.33057C74.2523 3.89751 73.7542 3.5655 73.1768 3.33454C72.5994 3.10357 71.9715 2.98809 71.293 2.98809C70.6146 2.98809 69.9866 3.10357 69.4092 3.33454C68.8463 3.5655 68.3482 3.89751 67.9152 4.33057C67.4821 4.76362 67.1429 5.27607 66.8975 5.86792C66.6665 6.45976 66.5511 7.11656 66.5511 7.83832C66.5511 8.54565 66.6665 9.20245 66.8975 9.80873C67.1429 10.4006 67.4749 10.913 67.8935 11.3461C68.3266 11.7791 68.8318 12.1111 69.4092 12.3421C69.9866 12.5731 70.6146 12.6886 71.293 12.6886Z" fill="white"/>
<path d="M84.3916 15.4168V5.75965L85.1495 6.53915H80.4508V3.76759H91.6886V6.53915H86.99L87.7478 5.75965V15.4168H84.3916Z" fill="white"/>
<path d="M101.739 15.4168L97.8414 9.89534L100.591 8.27138L105.723 15.4168H101.739ZM93.4892 15.4168V3.76759H96.8671V15.4168H93.4892ZM95.871 10.9996V8.29303H99.9418V10.9996H95.871ZM100.916 9.98195L97.7548 9.63551L101.847 3.76759H105.442L100.916 9.98195Z" fill="white"/>
<path d="M114.246 15.59C113.264 15.59 112.405 15.3735 111.669 14.9405C110.933 14.5074 110.355 13.8506 109.937 12.97C109.533 12.0751 109.33 10.9491 109.33 9.5922C109.33 8.22086 109.525 7.09491 109.915 6.21436C110.305 5.33381 110.868 4.67701 111.604 4.24395C112.34 3.8109 113.221 3.59437 114.246 3.59437C115.343 3.59437 116.324 3.84699 117.19 4.35222C118.071 4.84302 118.764 5.53591 119.269 6.43089C119.789 7.32587 120.049 8.37964 120.049 9.5922C120.049 10.8192 119.789 11.8802 119.269 12.7752C118.764 13.6702 118.071 14.363 117.19 14.8538C116.324 15.3446 115.343 15.59 114.246 15.59ZM107.36 19.6175V3.76759H110.586V6.1494L110.521 9.61386L110.738 13.0567V19.6175H107.36ZM113.661 12.8185C114.224 12.8185 114.722 12.6886 115.155 12.4287C115.603 12.1689 115.956 11.8008 116.216 11.3244C116.49 10.8336 116.627 10.2562 116.627 9.5922C116.627 8.91375 116.49 8.33634 116.216 7.85998C115.956 7.38361 115.603 7.01552 115.155 6.75568C114.722 6.49585 114.224 6.36593 113.661 6.36593C113.098 6.36593 112.593 6.49585 112.145 6.75568C111.698 7.01552 111.344 7.38361 111.084 7.85998C110.825 8.33634 110.695 8.91375 110.695 9.5922C110.695 10.2562 110.825 10.8336 111.084 11.3244C111.344 11.8008 111.698 12.1689 112.145 12.4287C112.593 12.6886 113.098 12.8185 113.661 12.8185Z" fill="white"/>
<path d="M134.412 15.4168V3.76759H137.768V15.4168H134.412ZM128.544 7.49188C130.074 7.50631 131.222 7.85276 131.987 8.53121C132.766 9.19524 133.156 10.1407 133.156 11.3677C133.156 12.6525 132.716 13.6557 131.835 14.3775C130.954 15.0848 129.706 15.4385 128.089 15.4385L122.416 15.4168V3.76759H125.772V7.49188H128.544ZM127.786 13.035C128.436 13.0494 128.934 12.9123 129.28 12.6236C129.626 12.3349 129.8 11.9018 129.8 11.3244C129.8 10.747 129.626 10.3356 129.28 10.0902C128.934 9.83038 128.436 9.69325 127.786 9.67881L125.772 9.65716V13.035H127.786Z" fill="white"/>
<path d="M143.514 15.4168V5.75965L144.272 6.53915H139.573V3.76759H150.811V6.53915H146.112L146.87 5.75965V15.4168H143.514Z" fill="white"/>
<path d="M164.607 15.4168V3.76759H167.963V15.4168H164.607ZM158.739 7.49188C160.269 7.50631 161.417 7.85276 162.182 8.53121C162.962 9.19524 163.351 10.1407 163.351 11.3677C163.351 12.6525 162.911 13.6557 162.031 14.3775C161.15 15.0848 159.901 15.4385 158.285 15.4385L152.612 15.4168V3.76759H155.968V7.49188H158.739ZM157.981 13.035C158.631 13.0494 159.129 12.9123 159.476 12.6236C159.822 12.3349 159.995 11.9018 159.995 11.3244C159.995 10.747 159.822 10.3356 159.476 10.0902C159.129 9.83038 158.631 9.69325 157.981 9.67881L155.968 9.65716V13.035H157.981Z" fill="white"/>
<path d="M176.914 15.59C175.586 15.59 174.417 15.3302 173.406 14.8105C172.41 14.2909 171.638 13.5835 171.09 12.6886C170.541 11.7791 170.267 10.747 170.267 9.5922C170.267 8.42295 170.534 7.39083 171.068 6.49585C171.616 5.58643 172.36 4.8791 173.298 4.37387C174.236 3.8542 175.297 3.59437 176.481 3.59437C177.622 3.59437 178.646 3.83977 179.556 4.33057C180.48 4.80693 181.209 5.49982 181.743 6.40924C182.277 7.30422 182.544 8.37965 182.544 9.63551C182.544 9.76543 182.537 9.917 182.522 10.0902C182.508 10.249 182.493 10.4006 182.479 10.5449H173.017V8.57452H180.703L179.404 9.15915C179.404 8.55287 179.282 8.02598 179.036 7.57849C178.791 7.131 178.452 6.78455 178.018 6.53915C177.585 6.27932 177.08 6.1494 176.503 6.1494C175.925 6.1494 175.413 6.27932 174.965 6.53915C174.532 6.78455 174.193 7.13822 173.948 7.60014C173.702 8.04763 173.58 8.58174 173.58 9.20245V9.72212C173.58 10.3573 173.717 10.9202 173.991 11.411C174.28 11.8874 174.677 12.2555 175.182 12.5153C175.702 12.7607 176.308 12.8834 177.001 12.8834C177.622 12.8834 178.163 12.7896 178.625 12.6019C179.101 12.4143 179.534 12.1328 179.924 11.7575L181.721 13.7062C181.187 14.3125 180.516 14.7817 179.707 15.1137C178.899 15.4312 177.968 15.59 176.914 15.59Z" fill="white"/>
<path d="M63 38.631V26.9818H66.5294L70.9249 34.9501H69.5175L74.2162 26.9818H77.3775L77.4208 38.631H74.3677V30.4463L74.8874 30.7927L70.8816 37.5051H69.4525L65.4251 30.5545L66.053 30.403V38.631H63Z" fill="white"/>
<path d="M87.6286 38.631V36.3575L87.412 35.8595V31.7887C87.412 31.067 87.1883 30.504 86.7408 30.0998C86.3078 29.6956 85.6365 29.4935 84.7271 29.4935C84.1064 29.4935 83.4929 29.5946 82.8866 29.7967C82.2948 29.9843 81.7895 30.2442 81.3709 30.5762L80.1584 28.216C80.7935 27.7685 81.5586 27.4221 82.4535 27.1767C83.3485 26.9313 84.258 26.8086 85.1818 26.8086C86.9573 26.8086 88.3359 27.2272 89.3175 28.0645C90.2991 28.9017 90.7899 30.2081 90.7899 31.9836V38.631H87.6286ZM84.0775 38.8043C83.1681 38.8043 82.3886 38.6527 81.739 38.3496C81.0894 38.032 80.5914 37.6061 80.245 37.072C79.8985 36.5379 79.7253 35.9389 79.7253 35.2749C79.7253 34.582 79.8913 33.9757 80.2233 33.456C80.5698 32.9363 81.1111 32.5322 81.8473 32.2435C82.5835 31.9403 83.5434 31.7887 84.7271 31.7887H87.8235V33.7592H85.0952C84.3012 33.7592 83.7527 33.8891 83.4496 34.1489C83.1609 34.4087 83.0165 34.7335 83.0165 35.1233C83.0165 35.5563 83.1825 35.9028 83.5145 36.1626C83.861 36.408 84.3301 36.5307 84.922 36.5307C85.4849 36.5307 85.9902 36.4008 86.4377 36.141C86.8852 35.8667 87.21 35.4697 87.412 34.9501L87.9317 36.5091C87.6863 37.2597 87.2388 37.8299 86.5892 38.2196C85.9396 38.6094 85.1024 38.8043 84.0775 38.8043Z" fill="white"/>
<path d="M99.2673 38.8043C98.0114 38.8043 96.8927 38.5516 95.9111 38.0464C94.9295 37.5267 94.1572 36.8122 93.5943 35.9028C93.0457 34.9934 92.7715 33.9612 92.7715 32.8064C92.7715 31.6372 93.0457 30.6051 93.5943 29.7101C94.1572 28.8007 94.9295 28.0933 95.9111 27.5881C96.8927 27.0684 98.0114 26.8086 99.2673 26.8086C100.494 26.8086 101.563 27.0684 102.472 27.5881C103.381 28.0933 104.053 28.8223 104.486 29.775L101.866 31.1825C101.562 30.6339 101.18 30.2297 100.718 29.9699C100.271 29.7101 99.7798 29.5802 99.2457 29.5802C98.6682 29.5802 98.1486 29.7101 97.6867 29.9699C97.2247 30.2297 96.8566 30.5978 96.5824 31.0742C96.3225 31.5506 96.1926 32.128 96.1926 32.8064C96.1926 33.4849 96.3225 34.0623 96.5824 34.5387C96.8566 35.015 97.2247 35.3831 97.6867 35.6429C98.1486 35.9028 98.6682 36.0327 99.2457 36.0327C99.7798 36.0327 100.271 35.91 100.718 35.6646C101.18 35.4048 101.562 34.9934 101.866 34.4304L104.486 35.8595C104.053 36.7978 103.381 37.5267 102.472 38.0464C101.563 38.5516 100.494 38.8043 99.2673 38.8043Z" fill="white"/>
<path d="M109.007 38.631V28.9739L109.765 29.7534H105.066V26.9818H116.304V29.7534H111.606L112.363 28.9739V38.631H109.007Z" fill="white"/>
<path d="M123.313 38.8043C121.985 38.8043 120.816 38.5444 119.805 38.0248C118.809 37.5051 118.037 36.7978 117.488 35.9028C116.94 34.9934 116.666 33.9612 116.666 32.8064C116.666 31.6372 116.933 30.6051 117.467 29.7101C118.015 28.8007 118.759 28.0933 119.697 27.5881C120.635 27.0684 121.696 26.8086 122.88 26.8086C124.02 26.8086 125.045 27.054 125.955 27.5448C126.879 28.0212 127.608 28.714 128.142 29.6235C128.676 30.5184 128.943 31.5939 128.943 32.8497C128.943 32.9797 128.936 33.1312 128.921 33.3044C128.907 33.4632 128.892 33.6148 128.878 33.7592H119.416V31.7887H127.102L125.803 32.3734C125.803 31.7671 125.68 31.2402 125.435 30.7927C125.19 30.3452 124.85 29.9988 124.417 29.7534C123.984 29.4935 123.479 29.3636 122.902 29.3636C122.324 29.3636 121.812 29.4935 121.364 29.7534C120.931 29.9988 120.592 30.3524 120.347 30.8144C120.101 31.2619 119.979 31.796 119.979 32.4167V32.9363C119.979 33.5715 120.116 34.1345 120.39 34.6253C120.679 35.1016 121.076 35.4697 121.581 35.7296C122.101 35.975 122.707 36.0977 123.4 36.0977C124.02 36.0977 124.562 36.0038 125.024 35.8162C125.5 35.6285 125.933 35.347 126.323 34.9717L128.12 36.9205C127.586 37.5267 126.915 37.9959 126.106 38.3279C125.298 38.6455 124.367 38.8043 123.313 38.8043Z" fill="white"/>
<path d="M138.396 38.8043C137.414 38.8043 136.556 38.5877 135.819 38.1547C135.083 37.7216 134.506 37.0648 134.087 36.1843C133.683 35.2893 133.481 34.1633 133.481 32.8064C133.481 31.4351 133.676 30.3091 134.065 29.4286C134.455 28.548 135.018 27.8912 135.754 27.4582C136.491 27.0251 137.371 26.8086 138.396 26.8086C139.493 26.8086 140.475 27.0612 141.341 27.5664C142.221 28.0572 142.914 28.7501 143.419 29.6451C143.939 30.5401 144.199 31.5939 144.199 32.8064C144.199 34.0334 143.939 35.0944 143.419 35.9894C142.914 36.8844 142.221 37.5773 141.341 38.0681C140.475 38.5589 139.493 38.8043 138.396 38.8043ZM131.51 42.8317V26.9818H134.737V29.3636L134.672 32.8281L134.888 36.2709V42.8317H131.51ZM137.811 36.0327C138.374 36.0327 138.872 35.9028 139.305 35.6429C139.753 35.3831 140.107 35.015 140.366 34.5387C140.641 34.0479 140.778 33.4704 140.778 32.8064C140.778 32.128 140.641 31.5506 140.366 31.0742C140.107 30.5978 139.753 30.2297 139.305 29.9699C138.872 29.7101 138.374 29.5802 137.811 29.5802C137.248 29.5802 136.743 29.7101 136.296 29.9699C135.848 30.2297 135.495 30.5978 135.235 31.0742C134.975 31.5506 134.845 32.128 134.845 32.8064C134.845 33.4704 134.975 34.0479 135.235 34.5387C135.495 35.015 135.848 35.3831 136.296 35.6429C136.743 35.9028 137.248 36.0327 137.811 36.0327Z" fill="white"/>
<path d="M152.11 38.8043C150.854 38.8043 149.735 38.5516 148.753 38.0464C147.772 37.5267 146.999 36.8122 146.436 35.9028C145.888 34.9934 145.614 33.9612 145.614 32.8064C145.614 31.6372 145.888 30.6051 146.436 29.7101C146.999 28.8007 147.772 28.0933 148.753 27.5881C149.735 27.0684 150.854 26.8086 152.11 26.8086C153.337 26.8086 154.405 27.0684 155.314 27.5881C156.224 28.0933 156.895 28.8223 157.328 29.775L154.708 31.1825C154.405 30.6339 154.022 30.2297 153.56 29.9699C153.113 29.7101 152.622 29.5802 152.088 29.5802C151.51 29.5802 150.991 29.7101 150.529 29.9699C150.067 30.2297 149.699 30.5978 149.425 31.0742C149.165 31.5506 149.035 32.128 149.035 32.8064C149.035 33.4849 149.165 34.0623 149.425 34.5387C149.699 35.015 150.067 35.3831 150.529 35.6429C150.991 35.9028 151.51 36.0327 152.088 36.0327C152.622 36.0327 153.113 35.91 153.56 35.6646C154.022 35.4048 154.405 34.9934 154.708 34.4304L157.328 35.8595C156.895 36.7978 156.224 37.5267 155.314 38.0464C154.405 38.5516 153.337 38.8043 152.11 38.8043Z" fill="white"/>
<path d="M167.63 38.631L163.733 33.1096L166.483 31.4856L171.614 38.631H167.63ZM159.38 38.631V26.9818H162.758V38.631H159.38ZM161.762 34.2139V31.5073H165.833V34.2139H161.762ZM166.807 33.1962L163.646 32.8497L167.738 26.9818H171.333L166.807 33.1962Z" fill="white"/>
<path d="M173.273 38.631V26.9818H176.629V33.9107L182.302 26.9818H185.399V38.631H182.042V31.7021L176.391 38.631H173.273Z" fill="white"/>
<path d="M194.34 38.8043C193.012 38.8043 191.843 38.5444 190.833 38.0248C189.837 37.5051 189.064 36.7978 188.516 35.9028C187.967 34.9934 187.693 33.9612 187.693 32.8064C187.693 31.6372 187.96 30.6051 188.494 29.7101C189.043 28.8007 189.786 28.0933 190.724 27.5881C191.663 27.0684 192.724 26.8086 193.907 26.8086C195.048 26.8086 196.073 27.054 196.982 27.5448C197.906 28.0212 198.635 28.714 199.169 29.6235C199.703 30.5184 199.97 31.5939 199.97 32.8497C199.97 32.9797 199.963 33.1312 199.948 33.3044C199.934 33.4632 199.92 33.6148 199.905 33.7592H190.443V31.7887H198.13L196.83 32.3734C196.83 31.7671 196.708 31.2402 196.462 30.7927C196.217 30.3452 195.878 29.9988 195.445 29.7534C195.012 29.4935 194.506 29.3636 193.929 29.3636C193.352 29.3636 192.839 29.4935 192.392 29.7534C191.958 29.9988 191.619 30.3524 191.374 30.8144C191.128 31.2619 191.006 31.796 191.006 32.4167V32.9363C191.006 33.5715 191.143 34.1345 191.417 34.6253C191.706 35.1016 192.103 35.4697 192.608 35.7296C193.128 35.975 193.734 36.0977 194.427 36.0977C195.048 36.0977 195.589 36.0038 196.051 35.8162C196.527 35.6285 196.96 35.347 197.35 34.9717L199.147 36.9205C198.613 37.5267 197.942 37.9959 197.134 38.3279C196.325 38.6455 195.394 38.8043 194.34 38.8043Z" fill="white"/>
<defs>
<linearGradient id="paint0_linear_701_4" x1="4.76279" y1="63.916" x2="62.9911" y2="52.8437" gradientUnits="userSpaceOnUse">
<stop stop-color="#36B9FF"/>
<stop offset="1" stop-color="#0BFFD3"/>
</linearGradient>
</defs>
</svg>
