<svg width="329" height="40" viewBox="0 0 329 40" fill="none" xmlns="http://www.w3.org/2000/svg">
<path d="M47.7459 7.78553V14.2466L36.3012 23.0401C35.5241 23.5579 34.4909 23.6673 33.5967 23.3265L32.8947 23.059L23.8581 29.5469L33.4386 33.3052C34.4147 33.6881 35.5552 33.5287 36.3487 32.8985L48 23.6447L47.9946 28.4202L36.2786 38.0242C35.5227 38.6417 34.4339 38.8266 33.4715 38.5011L23.8581 34.5873L17.8244 39.3861C16.9661 40.0688 15.7099 40.1949 14.6992 39.7L0 32.5016L0.0108126 22.5018L14.7942 29.7999C15.7577 30.2756 16.9528 30.1871 17.8127 29.5764L31.9297 19.5495L27.5749 17.4162L23.4183 20.3941C22.5607 21.0085 21.3648 21.101 20.3987 20.6278L10.5477 15.802L5.12519 19.6876L5.14411 2.34756L20.2555 9.7496C21.2215 10.2228 22.4174 10.1302 23.2749 9.51585L36.5575 0L36.5494 7.26887L27.875 13.4806L33.4547 16.1325C34.4167 16.5897 35.5965 16.4916 36.4444 15.884L47.7459 7.78553Z" fill="url(#paint0_linear_814_42)"/>
<path d="M71.3147 25.8681C70.1166 25.8681 69.0051 25.6732 67.9802 25.2834C66.9697 24.8937 66.0891 24.3451 65.3385 23.6378C64.6023 22.9305 64.0249 22.1005 63.6063 21.1477C63.2021 20.195 63 19.1557 63 18.0297C63 16.9038 63.2021 15.8644 63.6063 14.9117C64.0249 13.959 64.6095 13.129 65.3602 12.4216C66.1108 11.7143 66.9913 11.1658 68.0018 10.776C69.0123 10.3863 70.1093 10.1914 71.293 10.1914C72.4912 10.1914 73.5882 10.3863 74.5843 10.776C75.5947 11.1658 76.4681 11.7143 77.2043 12.4216C77.9549 13.129 78.5395 13.959 78.9581 14.9117C79.3768 15.85 79.5861 16.8893 79.5861 18.0297C79.5861 19.1557 79.3768 20.2022 78.9581 21.1694C78.5395 22.1221 77.9549 22.9521 77.2043 23.6595C76.4681 24.3524 75.5947 24.8937 74.5843 25.2834C73.5882 25.6732 72.4984 25.8681 71.3147 25.8681ZM71.293 22.88C71.9715 22.88 72.5922 22.7645 73.1552 22.5335C73.7326 22.3026 74.2378 21.9705 74.6709 21.5375C75.1039 21.1044 75.4359 20.592 75.6669 20.0001C75.9123 19.4083 76.035 18.7515 76.035 18.0297C76.035 17.308 75.9123 16.6512 75.6669 16.0593C75.4359 15.4675 75.1039 14.955 74.6709 14.522C74.2523 14.0889 73.7542 13.7569 73.1768 13.5259C72.5994 13.295 71.9715 13.1795 71.293 13.1795C70.6146 13.1795 69.9866 13.295 69.4092 13.5259C68.8463 13.7569 68.3482 14.0889 67.9152 14.522C67.4821 14.955 67.1429 15.4675 66.8975 16.0593C66.6665 16.6512 66.5511 17.308 66.5511 18.0297C66.5511 18.7371 66.6665 19.3939 66.8975 20.0001C67.1429 20.592 67.4749 21.1044 67.8935 21.5375C68.3266 21.9705 68.8318 22.3026 69.4092 22.5335C69.9866 22.7645 70.6146 22.88 71.293 22.88Z" fill="white"/>
<path d="M84.3916 25.6082V15.9511L85.1495 16.7306H80.4508V13.959H91.6886V16.7306H86.99L87.7478 15.9511V25.6082H84.3916Z" fill="white"/>
<path d="M101.739 25.6082L97.8414 20.0867L100.591 18.4628L105.723 25.6082H101.739ZM93.4892 25.6082V13.959H96.8671V25.6082H93.4892ZM95.871 21.191V18.4844H99.9418V21.191H95.871ZM100.916 20.1734L97.7548 19.8269L101.847 13.959H105.442L100.916 20.1734Z" fill="white"/>
<path d="M114.246 25.7814C113.264 25.7814 112.405 25.5649 111.669 25.1319C110.933 24.6988 110.355 24.042 109.937 23.1615C109.533 22.2665 109.33 21.1405 109.33 19.7836C109.33 18.4123 109.525 17.2863 109.915 16.4058C110.305 15.5252 110.868 14.8684 111.604 14.4354C112.34 14.0023 113.221 13.7858 114.246 13.7858C115.343 13.7858 116.324 14.0384 117.19 14.5436C118.071 15.0344 118.764 15.7273 119.269 16.6223C119.789 17.5173 120.049 18.5711 120.049 19.7836C120.049 21.0106 119.789 22.0716 119.269 22.9666C118.764 23.8616 118.071 24.5545 117.19 25.0452C116.324 25.536 115.343 25.7814 114.246 25.7814ZM107.36 29.8089V13.959H110.586V16.3408L110.521 19.8053L110.738 23.2481V29.8089H107.36ZM113.661 23.0099C114.224 23.0099 114.722 22.88 115.155 22.6201C115.603 22.3603 115.956 21.9922 116.216 21.5158C116.49 21.025 116.627 20.4476 116.627 19.7836C116.627 19.1052 116.49 18.5277 116.216 18.0514C115.956 17.575 115.603 17.2069 115.155 16.9471C114.722 16.6873 114.224 16.5573 113.661 16.5573C113.098 16.5573 112.593 16.6873 112.145 16.9471C111.698 17.2069 111.344 17.575 111.084 18.0514C110.825 18.5277 110.695 19.1052 110.695 19.7836C110.695 20.4476 110.825 21.025 111.084 21.5158C111.344 21.9922 111.698 22.3603 112.145 22.6201C112.593 22.88 113.098 23.0099 113.661 23.0099Z" fill="white"/>
<path d="M134.412 25.6082V13.959H137.768V25.6082H134.412ZM128.544 17.6833C130.074 17.6977 131.222 18.0442 131.987 18.7226C132.766 19.3866 133.156 20.3321 133.156 21.5591C133.156 22.8439 132.716 23.8471 131.835 24.5689C130.954 25.2762 129.706 25.6299 128.089 25.6299L122.416 25.6082V13.959H125.772V17.6833H128.544ZM127.786 23.2264C128.436 23.2408 128.934 23.1037 129.28 22.815C129.626 22.5263 129.8 22.0932 129.8 21.5158C129.8 20.9384 129.626 20.527 129.28 20.2816C128.934 20.0218 128.436 19.8847 127.786 19.8702L125.772 19.8486V23.2264H127.786Z" fill="white"/>
<path d="M143.514 25.6082V15.9511L144.272 16.7306H139.573V13.959H150.811V16.7306H146.112L146.87 15.9511V25.6082H143.514Z" fill="white"/>
<path d="M164.607 25.6082V13.959H167.963V25.6082H164.607ZM158.739 17.6833C160.269 17.6977 161.417 18.0442 162.182 18.7226C162.962 19.3866 163.351 20.3321 163.351 21.5591C163.351 22.8439 162.911 23.8471 162.031 24.5689C161.15 25.2762 159.901 25.6299 158.285 25.6299L152.612 25.6082V13.959H155.968V17.6833H158.739ZM157.981 23.2264C158.631 23.2408 159.129 23.1037 159.476 22.815C159.822 22.5263 159.995 22.0932 159.995 21.5158C159.995 20.9384 159.822 20.527 159.476 20.2816C159.129 20.0218 158.631 19.8847 157.981 19.8702L155.968 19.8486V23.2264H157.981Z" fill="white"/>
<path d="M176.914 25.7814C175.586 25.7814 174.417 25.5216 173.406 25.0019C172.41 24.4823 171.638 23.7749 171.09 22.88C170.541 21.9705 170.267 20.9384 170.267 19.7836C170.267 18.6144 170.534 17.5822 171.068 16.6873C171.616 15.7778 172.36 15.0705 173.298 14.5653C174.236 14.0456 175.297 13.7858 176.481 13.7858C177.622 13.7858 178.646 14.0312 179.556 14.522C180.48 14.9983 181.209 15.6912 181.743 16.6006C182.277 17.4956 182.544 18.5711 182.544 19.8269C182.544 19.9568 182.537 20.1084 182.522 20.2816C182.508 20.4404 182.493 20.592 182.479 20.7363H173.017V18.7659H180.703L179.404 19.3506C179.404 18.7443 179.282 18.2174 179.036 17.7699C178.791 17.3224 178.452 16.976 178.018 16.7306C177.585 16.4707 177.08 16.3408 176.503 16.3408C175.925 16.3408 175.413 16.4707 174.965 16.7306C174.532 16.976 174.193 17.3296 173.948 17.7915C173.702 18.239 173.58 18.7731 173.58 19.3939V19.9135C173.58 20.5487 173.717 21.1116 173.991 21.6024C174.28 22.0788 174.677 22.4469 175.182 22.7067C175.702 22.9521 176.308 23.0748 177.001 23.0748C177.622 23.0748 178.163 22.981 178.625 22.7934C179.101 22.6057 179.534 22.3242 179.924 21.9489L181.721 23.8976C181.187 24.5039 180.516 24.9731 179.707 25.3051C178.899 25.6227 177.968 25.7814 176.914 25.7814Z" fill="white"/>
<path d="M191.265 25.6082V13.959H194.795L199.19 21.9272H197.783L202.481 13.959H205.643L205.686 25.6082H202.633V17.4235L203.153 17.7699L199.147 24.4823H197.718L193.69 17.5317L194.318 17.3801V25.6082H191.265Z" fill="white"/>
<path d="M215.894 25.6082V23.3347L215.677 22.8367V18.7659C215.677 18.0442 215.454 17.4812 215.006 17.077C214.573 16.6728 213.902 16.4707 212.992 16.4707C212.372 16.4707 211.758 16.5718 211.152 16.7739C210.56 16.9615 210.055 17.2214 209.636 17.5534L208.424 15.1932C209.059 14.7457 209.824 14.3993 210.719 14.1539C211.614 13.9085 212.523 13.7858 213.447 13.7858C215.223 13.7858 216.601 14.2044 217.583 15.0416C218.564 15.8789 219.055 17.1853 219.055 18.9608V25.6082H215.894ZM212.343 25.7814C211.433 25.7814 210.654 25.6299 210.004 25.3267C209.355 25.0092 208.857 24.5833 208.51 24.0492C208.164 23.5151 207.991 22.9161 207.991 22.252C207.991 21.5591 208.157 20.9529 208.489 20.4332C208.835 19.9135 209.376 19.5093 210.113 19.2206C210.849 18.9175 211.809 18.7659 212.992 18.7659H216.089V20.7363H213.36C212.567 20.7363 212.018 20.8663 211.715 21.1261C211.426 21.3859 211.282 21.7107 211.282 22.1005C211.282 22.5335 211.448 22.88 211.78 23.1398C212.126 23.3852 212.595 23.5079 213.187 23.5079C213.75 23.5079 214.255 23.378 214.703 23.1181C215.15 22.8439 215.475 22.4469 215.677 21.9272L216.197 23.4862C215.952 24.2369 215.504 24.8071 214.855 25.1968C214.205 25.5866 213.368 25.7814 212.343 25.7814Z" fill="white"/>
<path d="M227.533 25.7814C226.277 25.7814 225.158 25.5288 224.176 25.0236C223.195 24.5039 222.423 23.7894 221.86 22.88C221.311 21.9705 221.037 20.9384 221.037 19.7836C221.037 18.6144 221.311 17.5822 221.86 16.6873C222.423 15.7778 223.195 15.0705 224.176 14.5653C225.158 14.0456 226.277 13.7858 227.533 13.7858C228.76 13.7858 229.828 14.0456 230.737 14.5653C231.647 15.0705 232.318 15.7995 232.751 16.7522L230.131 18.1596C229.828 17.6111 229.445 17.2069 228.983 16.9471C228.536 16.6873 228.045 16.5573 227.511 16.5573C226.934 16.5573 226.414 16.6873 225.952 16.9471C225.49 17.2069 225.122 17.575 224.848 18.0514C224.588 18.5277 224.458 19.1052 224.458 19.7836C224.458 20.4621 224.588 21.0395 224.848 21.5158C225.122 21.9922 225.49 22.3603 225.952 22.6201C226.414 22.88 226.934 23.0099 227.511 23.0099C228.045 23.0099 228.536 22.8872 228.983 22.6418C229.445 22.3819 229.828 21.9705 230.131 21.4076L232.751 22.8367C232.318 23.7749 231.647 24.5039 230.737 25.0236C229.828 25.5288 228.76 25.7814 227.533 25.7814Z" fill="white"/>
<path d="M237.272 25.6082V15.9511L238.03 16.7306H233.332V13.959H244.569V16.7306H239.871L240.629 15.9511V25.6082H237.272Z" fill="white"/>
<path d="M251.578 25.7814C250.25 25.7814 249.081 25.5216 248.071 25.0019C247.075 24.4823 246.302 23.7749 245.754 22.88C245.205 21.9705 244.931 20.9384 244.931 19.7836C244.931 18.6144 245.198 17.5822 245.732 16.6873C246.281 15.7778 247.024 15.0705 247.962 14.5653C248.901 14.0456 249.962 13.7858 251.145 13.7858C252.286 13.7858 253.311 14.0312 254.22 14.522C255.144 14.9983 255.873 15.6912 256.407 16.6006C256.941 17.4956 257.208 18.5711 257.208 19.8269C257.208 19.9568 257.201 20.1084 257.186 20.2816C257.172 20.4404 257.158 20.592 257.143 20.7363H247.681V18.7659H255.368L254.068 19.3506C254.068 18.7443 253.946 18.2174 253.7 17.7699C253.455 17.3224 253.116 16.976 252.683 16.7306C252.25 16.4707 251.744 16.3408 251.167 16.3408C250.59 16.3408 250.077 16.4707 249.63 16.7306C249.197 16.976 248.857 17.3296 248.612 17.7915C248.367 18.239 248.244 18.7731 248.244 19.3939V19.9135C248.244 20.5487 248.381 21.1116 248.655 21.6024C248.944 22.0788 249.341 22.4469 249.846 22.7067C250.366 22.9521 250.972 23.0748 251.665 23.0748C252.286 23.0748 252.827 22.981 253.289 22.7934C253.765 22.6057 254.198 22.3242 254.588 21.9489L256.385 23.8976C255.851 24.5039 255.18 24.9731 254.372 25.3051C253.563 25.6227 252.632 25.7814 251.578 25.7814Z" fill="white"/>
<path d="M266.661 25.7814C265.68 25.7814 264.821 25.5649 264.085 25.1319C263.348 24.6988 262.771 24.042 262.352 23.1615C261.948 22.2665 261.746 21.1405 261.746 19.7836C261.746 18.4123 261.941 17.2863 262.331 16.4058C262.72 15.5252 263.283 14.8684 264.02 14.4354C264.756 14.0023 265.636 13.7858 266.661 13.7858C267.758 13.7858 268.74 14.0384 269.606 14.5436C270.487 15.0344 271.18 15.7273 271.685 16.6223C272.204 17.5173 272.464 18.5711 272.464 19.7836C272.464 21.0106 272.204 22.0716 271.685 22.9666C271.18 23.8616 270.487 24.5545 269.606 25.0452C268.74 25.536 267.758 25.7814 266.661 25.7814ZM259.776 29.8089V13.959H263.002V16.3408L262.937 19.8053L263.154 23.2481V29.8089H259.776ZM266.077 23.0099C266.64 23.0099 267.138 22.88 267.571 22.6201C268.018 22.3603 268.372 21.9922 268.632 21.5158C268.906 21.025 269.043 20.4476 269.043 19.7836C269.043 19.1052 268.906 18.5277 268.632 18.0514C268.372 17.575 268.018 17.2069 267.571 16.9471C267.138 16.6873 266.64 16.5573 266.077 16.5573C265.514 16.5573 265.008 16.6873 264.561 16.9471C264.113 17.2069 263.76 17.575 263.5 18.0514C263.24 18.5277 263.11 19.1052 263.11 19.7836C263.11 20.4476 263.24 21.025 263.5 21.5158C263.76 21.9922 264.113 22.3603 264.561 22.6201C265.008 22.88 265.514 23.0099 266.077 23.0099Z" fill="white"/>
<path d="M280.375 25.7814C279.119 25.7814 278 25.5288 277.019 25.0236C276.037 24.5039 275.265 23.7894 274.702 22.88C274.153 21.9705 273.879 20.9384 273.879 19.7836C273.879 18.6144 274.153 17.5822 274.702 16.6873C275.265 15.7778 276.037 15.0705 277.019 14.5653C278 14.0456 279.119 13.7858 280.375 13.7858C281.602 13.7858 282.67 14.0456 283.579 14.5653C284.489 15.0705 285.16 15.7995 285.593 16.7522L282.973 18.1596C282.67 17.6111 282.287 17.2069 281.826 16.9471C281.378 16.6873 280.887 16.5573 280.353 16.5573C279.776 16.5573 279.256 16.6873 278.794 16.9471C278.332 17.2069 277.964 17.575 277.69 18.0514C277.43 18.5277 277.3 19.1052 277.3 19.7836C277.3 20.4621 277.43 21.0395 277.69 21.5158C277.964 21.9922 278.332 22.3603 278.794 22.6201C279.256 22.88 279.776 23.0099 280.353 23.0099C280.887 23.0099 281.378 22.8872 281.826 22.6418C282.287 22.3819 282.67 21.9705 282.973 21.4076L285.593 22.8367C285.16 23.7749 284.489 24.5039 283.579 25.0236C282.67 25.5288 281.602 25.7814 280.375 25.7814Z" fill="white"/>
<path d="M295.895 25.6082L291.998 20.0867L294.748 18.4628L299.88 25.6082H295.895ZM287.646 25.6082V13.959H291.024V25.6082H287.646ZM290.028 21.191V18.4844H294.098V21.191H290.028ZM295.073 20.1734L291.911 19.8269L296.004 13.959H299.598L295.073 20.1734Z" fill="white"/>
<path d="M301.538 25.6082V13.959H304.894V20.8879L310.567 13.959H313.664V25.6082H310.308V18.6793L304.656 25.6082H301.538Z" fill="white"/>
<path d="M322.606 25.7814C321.278 25.7814 320.108 25.5216 319.098 25.0019C318.102 24.4823 317.33 23.7749 316.781 22.88C316.232 21.9705 315.958 20.9384 315.958 19.7836C315.958 18.6144 316.225 17.5822 316.759 16.6873C317.308 15.7778 318.051 15.0705 318.99 14.5653C319.928 14.0456 320.989 13.7858 322.173 13.7858C323.313 13.7858 324.338 14.0312 325.247 14.522C326.171 14.9983 326.9 15.6912 327.434 16.6006C327.968 17.4956 328.235 18.5711 328.235 19.8269C328.235 19.9568 328.228 20.1084 328.214 20.2816C328.199 20.4404 328.185 20.592 328.17 20.7363H318.708V18.7659H326.395L325.096 19.3506C325.096 18.7443 324.973 18.2174 324.728 17.7699C324.482 17.3224 324.143 16.976 323.71 16.7306C323.277 16.4707 322.772 16.3408 322.194 16.3408C321.617 16.3408 321.104 16.4707 320.657 16.7306C320.224 16.976 319.885 17.3296 319.639 17.7915C319.394 18.239 319.271 18.7731 319.271 19.3939V19.9135C319.271 20.5487 319.408 21.1116 319.682 21.6024C319.971 22.0788 320.368 22.4469 320.873 22.7067C321.393 22.9521 321.999 23.0748 322.692 23.0748C323.313 23.0748 323.854 22.981 324.316 22.7934C324.793 22.6057 325.226 22.3242 325.615 21.9489L327.413 23.8976C326.878 24.5039 326.207 24.9731 325.399 25.3051C324.59 25.6227 323.659 25.7814 322.606 25.7814Z" fill="white"/>
<defs>
<linearGradient id="paint0_linear_814_42" x1="4.76279" y1="62.5" x2="62.9911" y2="51.4277" gradientUnits="userSpaceOnUse">
<stop stop-color="#36B9FF"/>
<stop offset="1" stop-color="#0BFFD3"/>
</linearGradient>
</defs>
</svg>
