<svg width="28" height="28" viewBox="0 0 28 28" fill="none" xmlns="http://www.w3.org/2000/svg">
<path d="M24.1617 4.26424C24.1617 4.26424 26.4279 3.38049 26.2384 5.52658C26.1759 6.41033 25.6095 9.50374 25.1685 12.8492L23.6577 22.76C23.6577 22.76 23.5317 24.2119 22.3983 24.4645C21.2654 24.7165 19.5656 23.5807 19.2506 23.3282C18.9986 23.1386 14.5291 20.2977 12.9553 18.9094C12.5143 18.5302 12.0103 17.7731 13.0183 16.8893L19.628 10.5765C20.3834 9.81933 21.1389 8.05183 17.9912 10.1979L9.17702 16.1946C9.17702 16.1946 8.16961 16.8263 6.28136 16.2582L2.18869 14.9952C2.18869 14.9952 0.677856 14.0485 3.25911 13.1017C9.55502 10.1349 17.2988 7.10508 24.1605 4.26424H24.1617Z" fill="white"/>
</svg>
