<svg width="200" height="43" viewBox="0 0 200 43" fill="none" xmlns="http://www.w3.org/2000/svg">
<path d="M47.7531 9.20271V15.6648L36.3066 24.4595C35.5295 24.9774 34.4961 25.0868 33.6017 24.746L32.8997 24.4784L23.8617 30.9673L33.4437 34.7262C34.4198 35.1092 35.5605 34.9497 36.3541 34.3194L48.0072 25.0642L48.0018 29.8405L36.2841 39.4459C35.5281 40.0635 34.4391 40.2485 33.4765 39.9229L23.8617 36.0085L17.8271 40.8081C16.9687 41.4908 15.7123 41.6169 14.7014 41.1219L0 33.9225L0.0108143 23.9212L14.7964 31.2204C15.76 31.6961 16.9554 31.6076 17.8153 30.9968L31.9345 20.9685L27.5791 18.8349L23.4218 21.8132C22.5641 22.4277 21.368 22.5202 20.4017 22.0469L10.5493 17.2204L5.12596 21.1066L5.14488 3.76393L20.2585 11.1671C21.2247 11.6403 22.4207 11.5477 23.2784 10.9333L36.563 1.41602L36.5549 8.68598L27.8792 14.8987L33.4598 17.5509C34.4218 18.0082 35.6018 17.9101 36.4498 17.3024L47.7531 9.20271Z" fill="#D3D3D3"/>
<path d="M71.3254 15.679C70.1271 15.679 69.0154 15.4841 67.9903 15.0943C66.9797 14.7045 66.099 14.1559 65.3483 13.4484C64.612 12.741 64.0345 11.9108 63.6158 10.958C63.2116 10.0051 63.0094 8.96562 63.0094 7.8395C63.0094 6.71338 63.2116 5.67389 63.6158 4.72102C64.0345 3.76816 64.6192 2.93801 65.37 2.23058C66.1207 1.52314 67.0014 0.974522 68.012 0.584713C69.0226 0.194904 70.1199 0 71.3037 0C72.502 0 73.5993 0.194904 74.5954 0.584713C75.6061 0.974522 76.4795 1.52314 77.2158 2.23058C77.9666 2.93801 78.5513 3.76816 78.97 4.72102C79.3887 5.65945 79.598 6.69895 79.598 7.8395C79.598 8.96562 79.3887 10.0123 78.97 10.9796C78.5513 11.9325 77.9666 12.7626 77.2158 13.4701C76.4795 14.1631 75.6061 14.7045 74.5954 15.0943C73.5993 15.4841 72.5092 15.679 71.3254 15.679ZM71.3037 12.6905C71.9823 12.6905 72.6031 12.575 73.1661 12.344C73.7436 12.113 74.2489 11.7809 74.6821 11.3478C75.1152 10.9147 75.4473 10.4021 75.6782 9.8102C75.9237 9.21827 76.0464 8.56137 76.0464 7.8395C76.0464 7.11763 75.9237 6.46073 75.6782 5.8688C75.4473 5.27686 75.1152 4.76434 74.6821 4.33121C74.2634 3.89809 73.7653 3.56603 73.1878 3.33504C72.6103 3.10404 71.9823 2.98854 71.3037 2.98854C70.6252 2.98854 69.9971 3.10404 69.4196 3.33504C68.8566 3.56603 68.3585 3.89809 67.9254 4.33121C67.4923 4.76434 67.153 5.27686 66.9075 5.8688C66.6765 6.46073 66.561 7.11763 66.561 7.8395C66.561 8.54693 66.6765 9.20383 66.9075 9.8102C67.153 10.4021 67.485 10.9147 67.9037 11.3478C68.3368 11.7809 68.8421 12.113 69.4196 12.344C69.9971 12.575 70.6252 12.6905 71.3037 12.6905Z" fill="#D3D3D3"/>
<path d="M84.4043 15.4191V5.76052L85.1623 6.54013H80.4629V3.76816H91.7024V6.54013H87.003L87.761 5.76052V15.4191H84.4043Z" fill="#D3D3D3"/>
<path d="M101.754 15.4191L97.8561 9.89683L100.606 8.27262L105.739 15.4191H101.754ZM93.5032 15.4191V3.76816H96.8816V15.4191H93.5032ZM95.8854 11.0013V8.29428H99.9567V11.0013H95.8854ZM100.931 9.98345L97.7695 9.63695L101.862 3.76816H105.457L100.931 9.98345Z" fill="#D3D3D3"/>
<path d="M114.263 15.5924C113.281 15.5924 112.422 15.3758 111.686 14.9427C110.949 14.5096 110.372 13.8527 109.953 12.972C109.549 12.0769 109.347 10.9508 109.347 9.59364C109.347 8.22209 109.542 7.09597 109.932 6.21529C110.321 5.33461 110.884 4.67771 111.621 4.24459C112.357 3.81147 113.238 3.59491 114.263 3.59491C115.36 3.59491 116.342 3.84756 117.208 4.35287C118.089 4.84374 118.782 5.53674 119.287 6.43185C119.807 7.32697 120.067 8.3809 120.067 9.59364C120.067 10.8208 119.807 11.882 119.287 12.7771C118.782 13.6722 118.089 14.3652 117.208 14.8561C116.342 15.3469 115.36 15.5924 114.263 15.5924ZM107.376 19.6204V3.76816H110.603V6.15032L110.538 9.6153L110.754 13.0586V19.6204H107.376ZM113.678 12.8204C114.241 12.8204 114.739 12.6905 115.172 12.4306C115.62 12.1707 115.974 11.8026 116.233 11.3261C116.508 10.8353 116.645 10.2578 116.645 9.59364C116.645 8.91508 116.508 8.33759 116.233 7.86116C115.974 7.38472 115.62 7.01657 115.172 6.7567C114.739 6.49682 114.241 6.36689 113.678 6.36689C113.115 6.36689 112.61 6.49682 112.162 6.7567C111.715 7.01657 111.361 7.38472 111.101 7.86116C110.841 8.33759 110.711 8.91508 110.711 9.59364C110.711 10.2578 110.841 10.8353 111.101 11.3261C111.361 11.8026 111.715 12.1707 112.162 12.4306C112.61 12.6905 113.115 12.8204 113.678 12.8204Z" fill="#D3D3D3"/>
<path d="M134.432 15.4191V3.76816H137.789V15.4191H134.432ZM128.563 7.493C130.093 7.50744 131.241 7.85394 132.006 8.53249C132.786 9.19661 133.176 10.1423 133.176 11.3694C133.176 12.6544 132.735 13.6578 131.855 14.3796C130.974 15.0871 129.725 15.4408 128.108 15.4408L122.434 15.4191V3.76816H125.791V7.493H128.563ZM127.805 13.037C128.455 13.0514 128.953 12.9142 129.299 12.6255C129.646 12.3367 129.819 11.9036 129.819 11.3261C129.819 10.7486 129.646 10.3372 129.299 10.0917C128.953 9.83186 128.455 9.6947 127.805 9.68027L125.791 9.65861V13.037H127.805Z" fill="#D3D3D3"/>
<path d="M143.536 15.4191V5.76052L144.293 6.54013H139.594V3.76816H150.834V6.54013H146.134L146.892 5.76052V15.4191H143.536Z" fill="#D3D3D3"/>
<path d="M164.632 15.4191V3.76816H167.989V15.4191H164.632ZM158.763 7.493C160.293 7.50744 161.441 7.85394 162.206 8.53249C162.986 9.19661 163.376 10.1423 163.376 11.3694C163.376 12.6544 162.936 13.6578 162.055 14.3796C161.174 15.0871 159.925 15.4408 158.308 15.4408L152.634 15.4191V3.76816H155.991V7.493H158.763ZM158.005 13.037C158.655 13.0514 159.153 12.9142 159.499 12.6255C159.846 12.3367 160.019 11.9036 160.019 11.3261C160.019 10.7486 159.846 10.3372 159.499 10.0917C159.153 9.83186 158.655 9.6947 158.005 9.68027L155.991 9.65861V13.037H158.005Z" fill="#D3D3D3"/>
<path d="M176.941 15.5924C175.612 15.5924 174.443 15.3325 173.432 14.8128C172.436 14.293 171.664 13.5856 171.115 12.6905C170.567 11.7809 170.292 10.7486 170.292 9.59364C170.292 8.42421 170.559 7.39194 171.094 6.49682C171.642 5.58727 172.386 4.87984 173.324 4.37453C174.263 3.85478 175.324 3.59491 176.508 3.59491C177.648 3.59491 178.673 3.84034 179.583 4.33121C180.507 4.80765 181.236 5.50064 181.77 6.4102C182.304 7.30532 182.571 8.3809 182.571 9.63695C182.571 9.76689 182.564 9.91848 182.55 10.0917C182.535 10.2505 182.521 10.4021 182.506 10.5465H173.043V8.5758H180.731L179.431 9.16052C179.431 8.55415 179.308 8.02718 179.063 7.57963C178.818 7.13207 178.478 6.78557 178.045 6.54013C177.612 6.28026 177.107 6.15032 176.529 6.15032C175.952 6.15032 175.439 6.28026 174.992 6.54013C174.559 6.78557 174.219 7.13929 173.974 7.60128C173.728 8.04884 173.606 8.58302 173.606 9.20383V9.72358C173.606 10.3588 173.743 10.9219 174.017 11.4128C174.306 11.8892 174.703 12.2573 175.208 12.5172C175.728 12.7626 176.334 12.8854 177.027 12.8854C177.648 12.8854 178.19 12.7915 178.652 12.6038C179.128 12.4162 179.561 12.1346 179.951 11.7592L181.748 13.7083C181.214 14.3147 180.543 14.7839 179.734 15.1159C178.926 15.4336 177.995 15.5924 176.941 15.5924Z" fill="#D3D3D3"/>
<path d="M63.0094 38.6367V26.9857H66.5394L70.9356 34.9552H69.5279L74.2273 26.9857H77.3891L77.4324 38.6367H74.3789V30.4507L74.8986 30.7972L70.8923 37.5106H69.463L65.4349 30.559L66.0629 30.4074V38.6367H63.0094Z" fill="#D3D3D3"/>
<path d="M87.6417 38.6367V36.3628L87.4251 35.8647V31.7934C87.4251 31.0715 87.2014 30.5085 86.7538 30.1042C86.3207 29.7 85.6493 29.4979 84.7398 29.4979C84.119 29.4979 83.5054 29.5989 82.899 29.801C82.3071 29.9887 81.8018 30.2486 81.3831 30.5807L80.1704 28.2201C80.8056 27.7726 81.5708 27.4261 82.4659 27.1807C83.361 26.9352 84.2706 26.8125 85.1946 26.8125C86.9704 26.8125 88.3491 27.2312 89.3309 28.0686C90.3126 28.9059 90.8035 30.2125 90.8035 31.9883V38.6367H87.6417ZM84.0901 38.81C83.1805 38.81 82.4009 38.6584 81.7512 38.3552C81.1016 38.0376 80.6035 37.6117 80.257 37.0775C79.9105 36.5433 79.7372 35.9441 79.7372 35.28C79.7372 34.587 79.9033 33.9807 80.2353 33.4609C80.5818 32.9412 81.1232 32.5369 81.8595 32.2482C82.5958 31.945 83.5559 31.7934 84.7398 31.7934H87.8366V33.7641H85.1079C84.3139 33.7641 83.7653 33.894 83.4621 34.1539C83.1733 34.4138 83.029 34.7386 83.029 35.1284C83.029 35.5616 83.195 35.9081 83.527 36.1679C83.8735 36.4134 84.3428 36.5361 84.9347 36.5361C85.4978 36.5361 86.0031 36.4061 86.4506 36.1463C86.8982 35.872 87.223 35.4749 87.4251 34.9552L87.9449 36.5144C87.6995 37.2652 87.2519 37.8354 86.6022 38.2253C85.9525 38.6151 85.1152 38.81 84.0901 38.81Z" fill="#D3D3D3"/>
<path d="M99.2822 38.81C98.0261 38.81 96.9072 38.5573 95.9255 38.052C94.9437 37.5323 94.1713 36.8176 93.6083 35.9081C93.0597 34.9985 92.7854 33.9662 92.7854 32.8112C92.7854 31.6418 93.0597 30.6095 93.6083 29.7144C94.1713 28.8049 94.9437 28.0974 95.9255 27.5921C96.9072 27.0724 98.0261 26.8125 99.2822 26.8125C100.509 26.8125 101.578 27.0724 102.487 27.5921C103.397 28.0974 104.068 28.8265 104.501 29.7794L101.881 31.187C101.578 30.6384 101.195 30.2342 100.733 29.9743C100.286 29.7144 99.7947 29.5845 99.2605 29.5845C98.683 29.5845 98.1633 29.7144 97.7013 29.9743C97.2393 30.2342 96.8712 30.6023 96.5968 31.0787C96.337 31.5552 96.207 32.1327 96.207 32.8112C96.207 33.4898 96.337 34.0673 96.5968 34.5437C96.8712 35.0202 97.2393 35.3883 97.7013 35.6482C98.1633 35.9081 98.683 36.038 99.2605 36.038C99.7947 36.038 100.286 35.9153 100.733 35.6698C101.195 35.41 101.578 34.9985 101.881 34.4354L104.501 35.8647C104.068 36.8032 103.397 37.5323 102.487 38.052C101.578 38.5573 100.509 38.81 99.2822 38.81Z" fill="#D3D3D3"/>
<path d="M109.024 38.6367V28.9781L109.781 29.7577H105.082V26.9857H116.322V29.7577H111.622L112.38 28.9781V38.6367H109.024Z" fill="#D3D3D3"/>
<path d="M123.332 38.81C122.003 38.81 120.834 38.5501 119.823 38.0303C118.827 37.5106 118.055 36.8032 117.506 35.9081C116.957 34.9985 116.683 33.9662 116.683 32.8112C116.683 31.6418 116.95 30.6095 117.484 29.7144C118.033 28.8049 118.777 28.0974 119.715 27.5921C120.653 27.0724 121.715 26.8125 122.898 26.8125C124.039 26.8125 125.064 27.0579 125.974 27.5488C126.898 28.0252 127.627 28.7182 128.161 29.6278C128.695 30.5229 128.962 31.5985 128.962 32.8545C128.962 32.9845 128.955 33.1361 128.941 33.3093C128.926 33.4681 128.912 33.6197 128.897 33.7641H119.433V31.7934H127.121L125.822 32.3781C125.822 31.7717 125.699 31.2448 125.454 30.7972C125.208 30.3497 124.869 30.0032 124.436 29.7577C124.003 29.4979 123.498 29.3679 122.92 29.3679C122.343 29.3679 121.83 29.4979 121.383 29.7577C120.949 30.0032 120.61 30.3569 120.365 30.8189C120.119 31.2664 119.997 31.8006 119.997 32.4214V32.9412C119.997 33.5764 120.134 34.1395 120.408 34.6303C120.697 35.1068 121.094 35.4749 121.599 35.7348C122.119 35.9802 122.725 36.103 123.418 36.103C124.039 36.103 124.58 36.0091 125.042 35.8214C125.519 35.6337 125.952 35.3522 126.342 34.9768L128.139 36.9259C127.605 37.5323 126.934 38.0015 126.125 38.3335C125.317 38.6512 124.386 38.81 123.332 38.81Z" fill="#D3D3D3"/>
<path d="M138.417 38.81C137.435 38.81 136.576 38.5934 135.84 38.1603C135.103 37.7272 134.526 37.0703 134.107 36.1896C133.703 35.2945 133.501 34.1683 133.501 32.8112C133.501 31.4397 133.696 30.3136 134.086 29.4329C134.475 28.5522 135.038 27.8953 135.775 27.4622C136.511 27.0291 137.392 26.8125 138.417 26.8125C139.514 26.8125 140.496 27.0652 141.362 27.5705C142.243 28.0613 142.936 28.7543 143.441 29.6494C143.961 30.5446 144.221 31.5985 144.221 32.8112C144.221 34.0384 143.961 35.0996 143.441 35.9947C142.936 36.8898 142.243 37.5828 141.362 38.0737C140.496 38.5645 139.514 38.81 138.417 38.81ZM131.53 42.838V26.9857H134.757V29.3679L134.692 32.8329L134.908 36.2762V42.838H131.53ZM137.832 36.038C138.395 36.038 138.893 35.9081 139.326 35.6482C139.774 35.3883 140.128 35.0202 140.387 34.5437C140.662 34.0528 140.799 33.4754 140.799 32.8112C140.799 32.1327 140.662 31.5552 140.387 31.0787C140.128 30.6023 139.774 30.2342 139.326 29.9743C138.893 29.7144 138.395 29.5845 137.832 29.5845C137.269 29.5845 136.764 29.7144 136.316 29.9743C135.869 30.2342 135.515 30.6023 135.255 31.0787C134.995 31.5552 134.865 32.1327 134.865 32.8112C134.865 33.4754 134.995 34.0528 135.255 34.5437C135.515 35.0202 135.869 35.3883 136.316 35.6482C136.764 35.9081 137.269 36.038 137.832 36.038Z" fill="#D3D3D3"/>
<path d="M152.132 38.81C150.876 38.81 149.757 38.5573 148.776 38.052C147.794 37.5323 147.021 36.8176 146.458 35.9081C145.91 34.9985 145.635 33.9662 145.635 32.8112C145.635 31.6418 145.91 30.6095 146.458 29.7144C147.021 28.8049 147.794 28.0974 148.776 27.5921C149.757 27.0724 150.876 26.8125 152.132 26.8125C153.359 26.8125 154.428 27.0724 155.337 27.5921C156.247 28.0974 156.918 28.8265 157.351 29.7794L154.731 31.187C154.428 30.6384 154.045 30.2342 153.583 29.9743C153.136 29.7144 152.645 29.5845 152.111 29.5845C151.533 29.5845 151.013 29.7144 150.551 29.9743C150.089 30.2342 149.721 30.6023 149.447 31.0787C149.187 31.5552 149.057 32.1327 149.057 32.8112C149.057 33.4898 149.187 34.0673 149.447 34.5437C149.721 35.0202 150.089 35.3883 150.551 35.6482C151.013 35.9081 151.533 36.038 152.111 36.038C152.645 36.038 153.136 35.9153 153.583 35.6698C154.045 35.41 154.428 34.9985 154.731 34.4354L157.351 35.8647C156.918 36.8032 156.247 37.5323 155.337 38.052C154.428 38.5573 153.359 38.81 152.132 38.81Z" fill="#D3D3D3"/>
<path d="M167.655 38.6367L163.757 33.1144L166.508 31.4902L171.64 38.6367H167.655ZM159.404 38.6367V26.9857H162.783V38.6367H159.404ZM161.786 34.2189V31.5119H165.858V34.2189H161.786ZM166.832 33.201L163.671 32.8545L167.764 26.9857H171.358L166.832 33.201Z" fill="#D3D3D3"/>
<path d="M173.299 38.6367V26.9857H176.656V33.9157L182.33 26.9857H185.426V38.6367H182.07V31.7068L176.417 38.6367H173.299Z" fill="#D3D3D3"/>
<path d="M194.369 38.81C193.041 38.81 191.872 38.5501 190.861 38.0303C189.865 37.5106 189.093 36.8032 188.544 35.9081C187.995 34.9985 187.721 33.9662 187.721 32.8112C187.721 31.6418 187.988 30.6095 188.522 29.7144C189.071 28.8049 189.814 28.0974 190.753 27.5921C191.691 27.0724 192.752 26.8125 193.936 26.8125C195.077 26.8125 196.102 27.0579 197.011 27.5488C197.935 28.0252 198.665 28.7182 199.199 29.6278C199.733 30.5229 200 31.5985 200 32.8545C200 32.9845 199.993 33.1361 199.978 33.3093C199.964 33.4681 199.949 33.6197 199.935 33.7641H190.471V31.7934H198.159L196.86 32.3781C196.86 31.7717 196.737 31.2448 196.492 30.7972C196.246 30.3497 195.907 30.0032 195.474 29.7577C195.041 29.4979 194.535 29.3679 193.958 29.3679C193.38 29.3679 192.868 29.4979 192.42 29.7577C191.987 30.0032 191.648 30.3569 191.403 30.8189C191.157 31.2664 191.034 31.8006 191.034 32.4214V32.9412C191.034 33.5764 191.172 34.1395 191.446 34.6303C191.735 35.1068 192.132 35.4749 192.637 35.7348C193.157 35.9802 193.763 36.103 194.456 36.103C195.077 36.103 195.618 36.0091 196.08 35.8214C196.557 35.6337 196.99 35.3522 197.38 34.9768L199.177 36.9259C198.643 37.5323 197.972 38.0015 197.163 38.3335C196.355 38.6512 195.423 38.81 194.369 38.81Z" fill="#D3D3D3"/>
</svg>
