<svg width="24" height="24" viewBox="0 0 24 24" fill="none" xmlns="http://www.w3.org/2000/svg">
<path d="M21.5201 5.98061C18.1601 0.80061 11.3001 -0.73939 5.98006 2.48061C0.800057 5.70061 -0.879942 12.7006 2.48006 17.8806L2.76006 18.3006L1.64006 22.5006L5.84006 21.3806L6.26006 21.6606C8.08006 22.6406 10.0401 23.2006 12.0001 23.2006C14.1001 23.2006 16.2001 22.6406 18.0201 21.5206C23.2001 18.1606 24.7401 11.3006 21.5201 5.98061ZM18.5801 16.7606C18.0201 17.6006 17.3201 18.1606 16.3401 18.3006C15.7801 18.3006 15.0801 18.5806 12.2801 17.4606C9.90006 16.3406 7.94006 14.5206 6.54006 12.4206C5.70006 11.4406 5.28006 10.1806 5.14006 8.92061C5.14006 7.80061 5.56006 6.82061 6.26006 6.12061C6.54006 5.84061 6.82006 5.70061 7.10006 5.70061H7.80006C8.08006 5.70061 8.36006 5.70061 8.50006 6.26061C8.78006 6.96061 9.48006 8.64061 9.48006 8.78061C9.62006 8.92061 9.62006 9.20061 9.48006 9.34061C9.62006 9.62061 9.48006 9.90061 9.34006 10.0406C9.20006 10.1806 9.06006 10.4606 8.92006 10.6006C8.64006 10.7406 8.50006 11.0206 8.64006 11.3006C9.20006 12.1406 9.90006 12.9806 10.6001 13.6806C11.4401 14.3806 12.2801 14.9406 13.2601 15.3606C13.5401 15.5006 13.8201 15.5006 13.9601 15.2206C14.1001 14.9406 14.8001 14.2406 15.0801 13.9606C15.3601 13.6806 15.5001 13.6806 15.7801 13.8206L18.0201 14.9406C18.3001 15.0806 18.5801 15.2206 18.7201 15.3606C18.8601 15.7806 18.8601 16.3406 18.5801 16.7606Z" fill="white"/>
</svg>
