<svg width="26" height="20" viewBox="0 0 26 20" fill="none" xmlns="http://www.w3.org/2000/svg">
<path d="M24.375 0.375H1.625C1.14102 0.375 0.75 0.766016 0.75 1.25V18.75C0.75 19.234 1.14102 19.625 1.625 19.625H24.375C24.859 19.625 25.25 19.234 25.25 18.75V1.25C25.25 0.766016 24.859 0.375 24.375 0.375ZM22.1656 3.35273L13.5387 10.0656C13.3254 10.2324 13.0273 10.2324 12.8141 10.0656L4.18438 3.35273C4.15184 3.32763 4.12798 3.29297 4.11614 3.25363C4.10429 3.21428 4.10506 3.17221 4.11832 3.13332C4.13159 3.09443 4.15669 3.06066 4.19011 3.03675C4.22353 3.01285 4.2636 2.99999 4.30469 3H22.0453C22.0864 2.99999 22.1265 3.01285 22.1599 3.03675C22.1933 3.06066 22.2184 3.09443 22.2317 3.13332C22.2449 3.17221 22.2457 3.21428 22.2339 3.25363C22.222 3.29297 22.1982 3.32763 22.1656 3.35273Z" fill="white"/>
</svg>
